<svg width="974" height="974" viewBox="0 0 974 974" fill="none" xmlns="http://www.w3.org/2000/svg">
<circle cx="487" cy="487" r="487" fill="#88CAE6"/>
<path d="M753.118 321.497C746.908 307.755 736.465 297.819 722.915 292.768C716.696 290.454 710.17 289.281 703.521 289.281C675.149 289.281 646.321 311.149 631.784 343.701C613.793 384.023 624.254 423.519 656.115 435.571C662.522 437.997 669.384 439.229 676.509 439.229C705.407 439.229 734.778 419.175 749.591 389.33C760.784 366.74 762.102 341.385 753.118 321.497Z" fill="#F17780"/>
<path d="M342.216 343.701C327.679 311.149 298.851 289.281 270.479 289.281C263.83 289.281 257.303 290.454 251.084 292.768C237.532 297.819 227.092 307.755 220.882 321.497C211.898 341.385 213.215 366.74 224.41 389.33C239.223 419.175 268.593 439.229 297.491 439.229C304.615 439.229 311.476 437.997 317.885 435.571C349.746 423.519 360.207 384.023 342.216 343.701Z" fill="#F17780"/>
<path d="M405.337 338.999C407.967 339.094 410.62 339.034 413.222 338.821C428.511 337.576 442.334 331.064 453.201 319.989C470.734 302.119 475.603 274.14 471.911 245.359C466.267 201.005 438.109 167.902 400.276 166.536C400.276 166.536 394.875 166.546 392.126 166.763C375.436 168.133 360.263 175.331 348.25 187.58C330.83 205.345 322.457 231.777 325.852 258.287C331.431 302.14 366.345 337.591 405.337 338.999Z" fill="#F17780"/>
<path d="M487 380.178C398.093 380.178 309.186 471.419 309.186 559.039C309.186 585.183 324.372 606.212 339.285 614.831C357.703 625.47 370.683 629.649 397.682 629.649C429.762 629.649 438.419 619.961 453.438 611.413C464.3 605.233 473.681 599.892 487.002 599.892C500.322 599.892 509.704 605.233 520.564 611.413C535.583 619.961 544.239 629.649 576.32 629.649C603.317 629.649 616.298 625.47 634.716 614.831C649.628 606.212 664.815 585.183 664.815 559.039C664.815 471.419 575.908 380.178 487 380.178Z" fill="#F17780"/>
<path d="M561.442 338.158C564.044 338.372 566.699 338.43 569.326 338.335C608.319 336.932 643.235 301.571 648.812 257.834C652.207 231.393 643.832 205.027 626.412 187.31C614.399 175.092 599.791 168.268 583.099 166.902C580.35 166.684 574.388 166.536 574.388 166.536C536.555 167.898 508.395 200.699 502.752 244.937C499.062 273.645 503.929 301.55 521.461 319.375C532.329 330.421 546.153 336.916 561.442 338.158Z" fill="#F17780"/>
<path d="M214.512 707.31H758.572" stroke="#275B4F" stroke-width="37" stroke-linecap="round"/>
<path d="M466.815 760.135C478.259 749.728 495.74 749.728 507.184 760.135L692.486 928.651C630.052 957.749 560.424 974 487 974C413.576 974 343.948 957.749 281.514 928.651L466.815 760.135Z" fill="#275B4F"/>
</svg>
